Coordinates
version=1
nRows=11
nColumns=63
inDegrees=yes

Units are S.I. units (second, meters, Newtons, ...)
If the header above contains a line with 'inDegrees', this indicates whether rotational values are in degrees (yes) or radians (no).

endheader
time	pelvis_tilt	pelvis_list	pelvis_rotation	pelvis_tx	pelvis_ty	pelvis_tz	hip_flexion_r	hip_adduction_r	hip_rotation_r	knee_angle_r	knee_angle_r_beta	ankle_angle_r	subtalar_angle_r	mtp_angle_r	hip_flexion_l	hip_adduction_l	hip_rotation_l	knee_angle_l	knee_angle_l_beta	ankle_angle_l	subtalar_angle_l	mtp_angle_l	L5_S1_Flex_Ext	L5_S1_Lat_Bending	L5_S1_axial_rotation	L4_L5_Flex_Ext	L4_L5_Lat_Bending	L4_L5_axial_rotation	L3_L4_Flex_Ext	L3_L4_Lat_Bending	L3_L4_axial_rotation	L2_L3_Flex_Ext	L2_L3_Lat_Bending	L2_L3_axial_rotation	L1_L2_Flex_Ext	L1_L2_Lat_Bending	L1_L2_axial_rotation	L1_T12_Flex_Ext	L1_T12_Lat_Bending	L1_T12_axial_rotation	Abs_r3	Abs_r2	Abs_r1	Abs_t1	Abs_t2	neck_flexion	neck_bending	neck_rotation	arm_flex_r	arm_add_r	arm_rot_r	elbow_flex_r	pro_sup_r	wrist_flex_r	wrist_dev_r	arm_flex_l	arm_add_l	arm_rot_l	elbow_flex_l	pro_sup_l	wrist_flex_l	wrist_dev_l
1.500000	-4.663989	-6.936597	92.117562	0.199681	0.732228	0.778131	12.761440	-4.164064	1.337438	18.021043	0.314527	33.776095	-4.787739	0.000000	7.729672	6.148645	8.784532	4.974918	0.086829	29.193267	-9.015685	0.000000	-0.166469	-1.062103	0.474162	-0.309150	-1.412597	0.503797	-0.273492	-2.582396	0.503797	-0.190258	-2.582396	0.414891	-0.154583	-2.165840	0.385256	-0.095121	-1.645197	0.355621	-1.189074	-12.014717	2.637145	0.000000	0.000000	2.363710	2.728820	-5.199138	22.943892	-16.124252	-0.095551	115.989612	89.493442	6.945194	20.981483	-15.788579	-23.363954	7.211257	84.242460	88.712689	-6.507284	7.800038
1.516667	-4.465878	-7.137166	92.298745	0.199414	0.732075	0.777709	12.845503	-3.956975	1.435073	17.813165	0.310898	33.580604	-4.998012	0.000000	8.045402	5.959658	8.128551	5.274464	0.092057	29.283278	-8.332969	0.000000	-0.150070	-1.059194	0.550951	-0.278695	-1.408728	0.585385	-0.246550	-2.575325	0.585385	-0.171515	-2.575325	0.482082	-0.139355	-2.159909	0.447648	-0.085750	-1.640692	0.413213	-1.071937	-11.981816	3.064224	0.000000	0.000000	2.705012	2.796895	-6.046377	18.698507	-18.121335	-4.497762	119.049370	90.083988	7.225309	20.856732	-15.822107	-22.945256	6.658450	85.296918	88.656472	-5.794475	8.360140
1.533333	-4.232229	-7.285222	92.466515	0.198907	0.731954	0.777577	12.880289	-3.752966	1.373336	17.583598	0.306892	33.434062	-4.978109	0.000000	8.293423	5.749580	7.567620	5.501196	0.096014	29.346329	-7.747328	0.000000	-0.133853	-1.048571	0.601101	-0.248578	-1.394599	0.638670	-0.219907	-2.549495	0.638670	-0.152980	-2.549495	0.525963	-0.124296	-2.138246	0.488395	-0.076483	-1.624236	0.450826	-0.956096	-11.861643	3.343143	0.000000	0.000000	3.018357	2.845801	-6.783121	14.807280	-20.789356	-8.184755	121.419899	90.315964	7.532751	21.085476	-15.977057	-22.716321	6.159503	86.274958	88.561713	-5.013181	8.619644
1.550000	-3.967544	-7.369235	92.627699	0.198126	0.731905	0.777749	12.855624	-3.562966	1.123668	17.342222	0.302679	33.324868	-4.721103	0.000000	8.460312	5.526729	7.186691	5.646196	0.098545	29.376329	-7.332138	0.000000	-0.120309	-1.029248	0.615116	-0.223426	-1.368900	0.653561	-0.197656	-2.502515	0.653561	-0.137501	-2.502515	0.538226	-0.111719	-2.098843	0.499782	-0.068745	-1.594306	0.461337	-0.859354	-11.643065	3.421090	0.000000	0.000000	3.266614	2.851117	-7.308658	11.544810	-24.043425	-11.191767	123.082742	89.903855	7.674801	21.626546	-16.258876	-22.762298	5.792135	87.144823	88.439799	-4.231603	8.456419
1.566667	-3.687035	-7.376503	92.798663	0.197092	0.731964	0.778201	12.756741	-3.387985	0.761283	17.099317	0.298439	33.225356	-4.370245	0.000000	8.533963	5.302511	6.979514	5.714569	0.099738	29.393085	-7.023259	0.000000	-0.112596	-1.002591	0.579298	-0.209103	-1.333446	0.615504	-0.184985	-2.437699	0.615504	-0.128686	-2.437699	0.506885	-0.104557	-2.044483	0.470679	-0.064338	-1.553013	0.434473	-0.804264	-11.341507	3.221880	0.000000	0.000000	3.440614	2.845814	-7.475187	9.122736	-27.828986	-13.739141	124.122167	88.918103	7.910990	22.502669	-16.752459	-23.085731	5.444208	87.937660	88.319378	-3.354299	7.981150
1.583333	-3.395408	-7.320188	92.949948	0.195870	0.732140	0.778859	12.602944	-3.230078	0.289698	16.865619	0.294361	33.135055	-3.885124	0.000000	8.521746	5.078045	6.966122	5.700824	0.099498	29.376729	-6.882127	0.000000	-0.109572	-0.970199	0.514790	-0.203487	-1.290365	0.546965	-0.180016	-2.358943	0.546965	-0.125230	-2.358943	0.450442	-0.101749	-1.978431	0.418267	-0.062610	-1.502839	0.386093	-0.782664	-10.975089	2.863109	0.000000	0.000000	3.526042	2.864147	-7.396135	7.292838	-32.104202	-16.533807	124.763279	87.135965	8.793836	23.659484	-17.373431	-23.716549	5.247648	88.627561	88.214132	-2.584664	7.229486
1.600000	-3.112274	-7.215491	93.119833	0.194509	0.732452	0.779622	12.395266	-3.107984	-0.324610	16.637962	0.290387	33.054932	-3.271620	0.000000	8.436331	4.870426	7.190814	5.612224	0.097952	29.318046	-6.915262	0.000000	-0.109686	-0.936591	0.421704	-0.203698	-1.245666	0.448061	-0.180204	-2.277227	0.448061	-0.125360	-2.277227	0.368991	-0.101855	-1.909896	0.342635	-0.062675	-1.450779	0.316278	-0.783478	-10.594904	2.345393	0.000000	0.000000	3.510723	2.968616	-7.128971	5.811134	-36.679799	-19.988915	125.261645	84.441281	10.351378	24.602296	-18.116643	-24.625683	5.175240	89.231067	88.137796	-2.082560	6.283416
1.616667	-2.875923	-7.090383	93.290451	0.193119	0.732872	0.780342	12.155725	-3.044167	-1.000612	16.417480	0.286539	32.989892	-2.603080	0.000000	8.293469	4.712826	7.642549	5.443564	0.095008	29.202851	-7.135539	0.000000	-0.109306	-0.906288	0.322334	-0.202992	-1.205363	0.342480	-0.179578	-2.203548	0.342480	-0.124926	-2.203548	0.282042	-0.101501	-1.848102	0.261896	-0.062457	-1.403840	0.241750	-0.780760	-10.252110	1.792724	0.000000	0.000000	3.389785	3.125704	-6.741514	4.311182	-41.170012	-24.452768	125.991706	81.028516	12.453200	25.055774	-18.894402	-25.766033	5.217605	89.710252	88.094811	-1.737089	5.230946
1.633333	-2.691984	-6.968970	93.516771	0.191715	0.733349	0.780921	11.897605	-3.044750	-1.754963	16.210988	0.282935	32.950930	-1.905269	0.000000	8.115592	4.610931	8.366630	5.202088	0.090794	29.060559	-7.523022	0.000000	-0.106559	-0.880041	0.219676	-0.197891	-1.170455	0.233406	-0.175066	-2.139732	0.233406	-0.121786	-2.139732	0.192217	-0.098951	-1.794580	0.178487	-0.060888	-1.363184	0.164757	-0.761140	-9.955201	1.221774	0.000000	0.000000	3.172748	3.317960	-6.253404	2.701544	-45.169082	-29.877016	127.207140	76.862346	15.006754	25.263491	-19.630294	-27.089744	5.411640	90.032637	88.086295	-1.697077	4.079978
1.650000	-2.574107	-6.840042	93.744950	0.190376	0.733835	0.781329	11.626252	-3.109934	-2.530124	16.042329	0.279991	32.958086	-1.184893	0.000000	7.895089	4.572467	9.253443	4.904420	0.085598	28.932706	-8.017031	0.000000	-0.103722	-0.857204	0.129272	-0.192621	-1.140082	0.137351	-0.170404	-2.084206	0.137351	-0.118543	-2.084206	0.113113	-0.096316	-1.748011	0.105033	-0.059267	-1.327809	0.096954	-0.740873	-9.696866	0.718970	0.000000	0.000000	2.890970	3.398513	-5.636171	1.021411	-48.489736	-35.818173	129.037274	71.845812	17.233387	25.238928	-20.255509	-28.525320	5.770635	90.147855	88.107439	-2.035609	2.824906
1.666667	-2.509385	-6.711635	93.986442	0.189069	0.734273	0.781534	11.341914	-3.224560	-3.322317	15.901895	0.277540	33.000773	-0.480192	0.000000	7.643255	4.586842	10.272502	4.564078	0.079658	28.841615	-8.590221	0.000000	-0.099231	-0.835037	0.052688	-0.184281	-1.110599	0.055981	-0.163026	-2.030309	0.055981	-0.113411	-2.030309	0.046102	-0.092146	-1.702807	0.042809	-0.056700	-1.293472	0.039516	-0.708794	-9.446105	0.293033	0.000000	0.000000	2.558006	3.303404	-4.870563	-0.727059	-51.044721	-41.949266	131.398390	65.740779	18.547677	25.028280	-20.716546	-30.007683	6.295038	90.009140	88.153544	-2.721153	1.445725
